<?xml version="1.0" encoding="UTF-8"?>
<svg id="Layer_2" xmlns="http://www.w3.org/2000/svg" viewBox="0 0 87.69 99.54">
  <defs>
    <style>
      .cls-1 {
        fill: #b11f24;
      }
    </style>
  </defs>
  <g id="Layer_1-2" data-name="Layer_1">
    <path class="cls-1" d="M81.59,26.01c-.06-6.52-1.89-10.14-5.01-13.63L87.69,0l-34.25,1.69,25.99,2.13-5.5,6.16c-3.46-2.52-7.87-3.73-12.77-3.65-7.3.33-11.2,3.89-17.31,11.54-6.11-7.66-10.02-11.21-17.32-11.54-4.9-.08-9.31,1.13-12.77,3.65l-5.5-6.16,25.99-2.13L0,0l11.11,12.38c-3.11,3.48-4.94,7.11-5.01,13.63-.09,9.18,4.82,12.82,25.81,31.02-1.59,1.54-12.05,14.37-12.05,14.37l-9.32-8.1,8.14,14.27s14.04-16.28,15.96-18.25c3.11,2.38,7.28,9.1,7.29,11.01.01,1.9-2.59,6.84-2.59,6.84l-2.48,4.92-1.1-1.67-9.1-8.42s3.79,6.22,5.18,8.46l3.06,5.52s-1.47,4.1-5.81,5.36c-.26.05-.52.08-.76.08-.78,0-1.46-.25-2.09-.77l-.02-.02c-.35-.27-.71-.74-.97-1.28-.32-.66.19-1.42.92-1.38l5.09-.06-5.55-8.95c2.94,8.98.25,8.54.25,8.54,0,0-8.14.79-1.9,5.86,1.27,1.03,2.74,1.57,4.23,1.57.6,0,1.13-.12,1.56-.2,4.28-.8,6.99-5.65,6.99-5.65l5.28,9.16.68,1.31h2.1l.68-1.31,5.28-9.16s2.7,4.86,6.99,5.65c.43.08.96.2,1.56.2,1.5,0,2.97-.54,4.23-1.57,6.24-5.07-1.9-5.86-1.9-5.86,0,0-2.69.44.25-8.54l-5.55,8.95,5.09.06c.73-.05,1.24.71.92,1.38-.26.54-.62,1.01-.97,1.28l-.02.02c-.63.52-1.31.77-2.09.77-.24,0-.5-.03-.76-.08-4.34-1.26-5.81-5.36-5.81-5.36l3.06-5.52c1.39-2.24,5.18-8.46,5.18-8.46l-9.1,8.42-1.1,1.67-2.48-4.92s-2.6-4.93-2.59-6.84c.01-1.9,4.18-8.63,7.29-11.01,1.92,1.98,15.96,18.25,15.96,18.25l8.14-14.27-9.32,8.1s-10.47-12.84-12.05-14.37c21-18.2,25.9-21.84,25.81-31.02ZM26.58,9.13c5.7.21,9.41,4.52,17.26,12.23,7.85-7.71,11.56-12.02,17.27-12.23,4.1-.15,7.74,1.1,10.64,3.3l-27.9,31.28L15.94,12.42c2.89-2.2,6.54-3.45,10.64-3.3ZM33.93,54.9c-10.31-8.8-25.02-18.28-24.87-28.26.07-4.52,1.64-8.64,4.28-11.75l28.18,31.42-7.59,8.59ZM48.88,85.41l-5.03,8.71-5.03-8.71,5.03-10.52,5.03,10.52ZM43.85,67.07c-2.89-6.63-7.29-9.97-7.29-9.97l7.29-8.16,7.29,8.16s-4.4,3.34-7.29,9.97ZM53.76,54.9l-7.59-8.59,28.18-31.42c2.64,3.11,4.21,7.23,4.28,11.75.15,9.98-14.55,19.46-24.87,28.26Z"/>
  </g>
</svg>